<svg xmlns="http://www.w3.org/2000/svg" width="900" height="590" viewBox="0 0 900 590" fill="none" role="img" aria-labelledby="title desc">
  <title id="title">White-label web production dashboard mockup</title>
  <desc id="desc">A desktop monitor showing website, analytics, and project management screens.</desc>
  <defs>
    <linearGradient id="screen" x1="0" y1="0" x2="1" y2="1">
      <stop stop-color="#0B1C3C"/>
      <stop offset="1" stop-color="#061126"/>
    </linearGradient>
    <linearGradient id="glass" x1="0" y1="0" x2="1" y2="1">
      <stop stop-color="#FFFFFF" stop-opacity=".92"/>
      <stop offset="1" stop-color="#E8F4FF" stop-opacity=".86"/>
    </linearGradient>
    <linearGradient id="blue" x1="0" y1="0" x2="1" y2="1">
      <stop stop-color="#1178E7"/>
      <stop offset="1" stop-color="#0046A8"/>
    </linearGradient>
    <filter id="shadow" x="-20%" y="-20%" width="140%" height="150%">
      <feDropShadow dx="0" dy="26" stdDeviation="24" flood-color="#071936" flood-opacity=".22"/>
    </filter>
  </defs>
  <g opacity=".35">
    <circle cx="706" cy="109" r="128" fill="#D7ECFF"/>
    <circle cx="156" cy="412" r="92" fill="#CBE7FF"/>
  </g>

  <g filter="url(#shadow)" transform="translate(214 45)">
    <rect x="0" y="0" width="610" height="376" rx="22" fill="#D9E4F0"/>
    <rect x="21" y="21" width="568" height="322" rx="14" fill="url(#screen)"/>
    <rect x="285" y="358" width="40" height="76" rx="8" fill="#C8D5E3"/>
    <path d="M211 450h190c17 0 32 12 36 29H176c4-17 18-29 35-29Z" fill="#D4E0ED"/>

    <g transform="translate(42 45)">
      <rect width="92" height="275" rx="12" fill="#071936"/>
      <circle cx="24" cy="30" r="9" fill="#0D6FD5"/>
      <rect x="42" y="24" width="33" height="8" rx="4" fill="#6FADEB"/>
      <rect x="18" y="62" width="58" height="7" rx="3.5" fill="#355B8B"/>
      <rect x="18" y="87" width="47" height="7" rx="3.5" fill="#355B8B"/>
      <rect x="18" y="112" width="61" height="7" rx="3.5" fill="#355B8B"/>
      <rect x="18" y="137" width="43" height="7" rx="3.5" fill="#355B8B"/>
      <rect x="18" y="205" width="58" height="42" rx="10" fill="#0C58B7" opacity=".76"/>
    </g>

    <g transform="translate(160 45)">
      <rect width="200" height="128" rx="14" fill="url(#glass)"/>
      <rect x="20" y="22" width="72" height="9" rx="4.5" fill="#0A56BA"/>
      <rect x="20" y="47" width="145" height="8" rx="4" fill="#B8CCE4"/>
      <rect x="20" y="68" width="122" height="8" rx="4" fill="#D0DCEB"/>
      <rect x="20" y="96" width="72" height="18" rx="9" fill="url(#blue)"/>
      <rect x="112" y="86" width="60" height="28" rx="8" fill="#E9F4FF" stroke="#B3D7FF"/>
    </g>

    <g transform="translate(382 45)">
      <rect width="166" height="128" rx="14" fill="url(#glass)"/>
      <rect x="20" y="22" width="82" height="9" rx="4.5" fill="#0A56BA"/>
      <path d="M25 98h19V60H25v38Zm34 0h19V42H59v56Zm34 0h19V72H93v26Zm34 0h19V32h-19v66Z" fill="#0D6FD5" opacity=".86"/>
      <path d="M22 98h130" stroke="#B8CCE4" stroke-width="3" stroke-linecap="round"/>
    </g>

    <g transform="translate(160 198)">
      <rect width="160" height="100" rx="14" fill="#0D2B5C"/>
      <rect x="18" y="18" width="52" height="7" rx="3.5" fill="#6FADEB"/>
      <rect x="18" y="40" width="120" height="6" rx="3" fill="#355B8B"/>
      <rect x="18" y="59" width="104" height="6" rx="3" fill="#355B8B"/>
      <rect x="18" y="77" width="62" height="10" rx="5" fill="#0D6FD5"/>
    </g>
    <g transform="translate(338 198)">
      <rect width="210" height="100" rx="14" fill="#0D2B5C"/>
      <rect x="18" y="18" width="64" height="7" rx="3.5" fill="#6FADEB"/>
      <circle cx="48" cy="62" r="24" stroke="#0D6FD5" stroke-width="12"/>
      <path d="M109 78 131 53l20 14 31-38" stroke="#4CB3FF" stroke-width="8" stroke-linecap="round" stroke-linejoin="round"/>
      <path d="M109 82h86" stroke="#355B8B" stroke-width="4" stroke-linecap="round"/>
    </g>
  </g>

  <g transform="translate(53 274)" filter="url(#shadow)">
    <rect width="280" height="171" rx="18" fill="#D9E4F0"/>
    <rect x="18" y="18" width="244" height="132" rx="10" fill="#061126"/>
    <rect x="40" y="44" width="82" height="8" rx="4" fill="#0D6FD5"/>
    <rect x="40" y="68" width="162" height="7" rx="3.5" fill="#355B8B"/>
    <rect x="40" y="90" width="132" height="7" rx="3.5" fill="#355B8B"/>
    <rect x="40" y="114" width="74" height="18" rx="9" fill="#0D6FD5"/>
    <rect x="110" y="165" width="60" height="10" rx="5" fill="#C8D5E3"/>
  </g>
</svg>