<svg xmlns="http://www.w3.org/2000/svg" viewBox="0 0 1024 611" role="img" aria-labelledby="title desc">
<title id="title">Size Chart Placeholder</title>
<desc id="desc">A placeholder size chart for legacy pages.</desc>
<rect width="1024" height="611" fill="#f7f3ec"/>
<rect x="56" y="56" width="912" height="499" rx="22" fill="#fff" stroke="#d7c9b6" stroke-width="4"/>
<text x="92" y="128" fill="#1c1c1c" font-family="Arial, sans-serif" font-size="34" font-weight="700">Demo Size Chart</text>
<text x="92" y="166" fill="#8b7355" font-family="Arial, sans-serif" font-size="18">Legacy size-table image replaced with a theme placeholder.</text>
<g transform="translate(92 210)">
<rect width="820" height="250" fill="#faf7f2" stroke="#e5dccf" stroke-width="2"/>
<path d="M170 0v250M340 0v250M510 0v250M680 0v250" stroke="#d4c7b5" stroke-width="2"/>
<path d="M0 62h820M0 124h820M0 186h820" stroke="#d4c7b5" stroke-width="2"/>
<text x="44" y="40" fill="#1c1c1c" font-family="Arial, sans-serif" font-size="22" font-weight="700">US</text>
<text x="210" y="40" fill="#1c1c1c" font-family="Arial, sans-serif" font-size="22" font-weight="700">JP</text>
<text x="380" y="40" fill="#1c1c1c" font-family="Arial, sans-serif" font-size="22" font-weight="700">Bust</text>
<text x="550" y="40" fill="#1c1c1c" font-family="Arial, sans-serif" font-size="22" font-weight="700">Waist</text>
<text x="718" y="40" fill="#1c1c1c" font-family="Arial, sans-serif" font-size="22" font-weight="700">Hip</text>
<text x="44" y="102" fill="#6e5a42" font-family="Arial, sans-serif" font-size="24">4</text>
<text x="204" y="102" fill="#6e5a42" font-family="Arial, sans-serif" font-size="24">7</text>
<text x="364" y="102" fill="#6e5a42" font-family="Arial, sans-serif" font-size="24">80</text>
<text x="534" y="102" fill="#6e5a42" font-family="Arial, sans-serif" font-size="24">63</text>
<text x="704" y="102" fill="#6e5a42" font-family="Arial, sans-serif" font-size="24">88</text>
<text x="44" y="164" fill="#6e5a42" font-family="Arial, sans-serif" font-size="24">6</text>
<text x="204" y="164" fill="#6e5a42" font-family="Arial, sans-serif" font-size="24">9</text>
<text x="364" y="164" fill="#6e5a42" font-family="Arial, sans-serif" font-size="24">84</text>
<text x="534" y="164" fill="#6e5a42" font-family="Arial, sans-serif" font-size="24">67</text>
<text x="704" y="164" fill="#6e5a42" font-family="Arial, sans-serif" font-size="24">92</text>
<text x="44" y="226" fill="#6e5a42" font-family="Arial, sans-serif" font-size="24">8</text>
<text x="200" y="226" fill="#6e5a42" font-family="Arial, sans-serif" font-size="24">11</text>
<text x="360" y="226" fill="#6e5a42" font-family="Arial, sans-serif" font-size="24">88</text>
<text x="530" y="226" fill="#6e5a42" font-family="Arial, sans-serif" font-size="24">71</text>
<text x="700" y="226" fill="#6e5a42" font-family="Arial, sans-serif" font-size="24">96</text>
</g>
</svg>
